<svg id="Layer_1" data-name="Layer 1" xmlns="http://www.w3.org/2000/svg" viewBox="0 0 64 56"><defs><style>.cls-1{fill:#00a99d;fill-rule:evenodd;}</style></defs><path class="cls-1" d="M63.71,13.29,55.28,53.9c-.92,4.5-4,6.1-6.5,6.1a8.2,8.2,0,0,1-4.05-1.17l-.23-.13-.22-.16L26.75,45.3,26.09,53a3.62,3.62,0,0,1-6.95.63l-2.92-8.79A1.88,1.88,0,0,1,16,44a2,2,0,0,1,3.88-.66h0l2.4,7.22.35-4.13h0a4.8,4.8,0,0,1,7.52-3.55L46.69,55.35a4.39,4.39,0,0,0,2.09.65c1.28,0,2.18-1,2.58-2.9l8.45-40.68C60.5,9.6,59.25,8,57.57,8a3.13,3.13,0,0,0-1.35.32L6.62,27.86C3.23,29.25,3.25,31.18,6,32l8.2,2.62h0a2.05,2.05,0,0,0,1.73-.22h0L37.91,20.6a4,4,0,0,1,5,6.13l-11.5,11.5h0l0,0h0a2,2,0,0,1-2.82-2.83h0L40,24,18,37.86a6.08,6.08,0,0,1-5,.6h0l-8.14-2.6C.51,34.52.05,31.4,0,30.48-.06,28.93.51,26,5.1,24.16h.05L54.66,4.63A7.17,7.17,0,0,1,57.57,4a6.27,6.27,0,0,1,5,2.39,7.94,7.94,0,0,1,1.18,6.9ZM30,50a2,2,0,1,1-2,2,2,2,0,0,1,2-2Z" transform="translate(0 -4)"/></svg>