<svg xmlns="http://www.w3.org/2000/svg" viewBox="0 0 65.62 65.85"><title>Exit</title><g id="Layer_2" data-name="Layer 2"><g id="objkt"><path d="M32.81,65.85A32.55,32.55,0,0,1,9.6,56.21a33,33,0,0,1,0-46.56A32.56,32.56,0,0,1,32.81,0h0A32.56,32.56,0,0,1,56,9.65a33,33,0,0,1,0,46.56h0A32.55,32.55,0,0,1,32.81,65.85Zm0-63.65a30.4,30.4,0,0,0-21.66,9,30.85,30.85,0,0,0,0,43.47,30.56,30.56,0,0,0,43.32,0h0a30.85,30.85,0,0,0,0-43.47A30.4,30.4,0,0,0,32.81,2.2ZM55.25,55.43h0Z" style="fill:#1a2f38"/><path d="M19.83,47a1.05,1.05,0,0,1-.77-.32,1.09,1.09,0,0,1,0-1.55l26-26a1.1,1.1,0,0,1,1.55,1.55l-25.95,26A1.07,1.07,0,0,1,19.83,47Z" style="fill:#1a2f38"/><path d="M45.79,47a1.09,1.09,0,0,1-.78-.32l-25.95-26a1.1,1.1,0,0,1,1.55-1.55l26,26a1.09,1.09,0,0,1,0,1.55A1.05,1.05,0,0,1,45.79,47Z" style="fill:#1a2f38"/></g></g></svg>